# xmcd
#
# Track frame offsets:
#	150
#	13463
#	31741
#	47282
#	64341
#	83850
#	104551
#	117593
#	133989
#	149472
#	166604
#	183429
#
# Disc length: 2746 seconds
#
# Revision: 16
# Processed by: cddbd v1.5.2PL0 Copyright (c) Steve Scherf et al.
# Submitted via: EZCDAudioConverter 1.2.3.1
#
DISCID=a90ab80c
DTITLE=Katie Melua - The House
DYEAR=2010
DGENRE=Pop
TTITLE0=I'd Love To Kill You
TTITLE1=The Flood
TTITLE2=A Happy Place
TTITLE3=A Moment Of Madness
TTITLE4=Red Balloons
TTITLE5=Tiny Alien
TTITLE6=No Fear Of Heights
TTITLE7=The One I Love Is Gone
TTITLE8=Plague Of Love
TTITLE9=God On The Drums, Devil On The Bass
TTITLE10=Twisted
TTITLE11=The House
EXTD=
EXTT0=
EXTT1=
EXTT2=
EXTT3=
EXTT4=
EXTT5=
EXTT6=
EXTT7=
EXTT8=
EXTT9=
EXTT10=
EXTT11=
PLAYORDER=
